# Blender 3.5.0
# www.blender.org
mtllib Player.mtl
o Cube
v 1.008339 6.536291 0.555285
v 1.008339 4.536291 0.555285
v -0.991661 6.536291 0.555285
v -0.991661 4.536291 0.555285
v 1.008339 6.536291 -1.444715
v 1.008339 4.536291 -1.444715
v -0.991661 6.536291 -1.444715
v -0.991661 4.536291 -1.444715
vn -0.0000 1.0000 -0.0000
vn -1.0000 -0.0000 -0.0000
vn -0.0000 -0.0000 -1.0000
vn -0.0000 -1.0000 -0.0000
vn -0.0000 -0.0000 1.0000
vn 1.0000 -0.0000 -0.0000
vt 0.666667 0.000000
vt 0.666667 0.666667
vt 0.000000 1.000000
vt 0.666667 0.000000
vt 0.666667 0.333333
vt 0.000000 0.666667
vt 0.666667 0.333333
vt 0.333333 0.333333
vt 0.333333 0.666667
vt 0.333333 0.000000
vt 0.666667 0.333333
vt 0.333333 0.333333
vt 1.000000 0.000000
vt 0.000000 0.666667
vt 0.333333 1.000000
vt 0.000000 0.333333
vt 0.333333 0.000000
vt 0.333333 0.666667
vt 1.000000 0.333333
vt 0.000000 0.333333
vt 0.333333 0.666667
vt 0.000000 0.000000
vt 0.333333 0.333333
s 0
usemtl Material
f 1/1/1 5/13/1 7/19/1 3/7/1
f 4/10/2 3/8/2 7/20/2 8/22/2
f 8/23/3 7/21/3 5/14/3 6/16/3
f 6/17/4 2/4/4 4/11/4 8/23/4
f 2/5/5 1/2/5 3/9/5 4/12/5
f 6/18/6 5/15/6 1/3/6 2/6/6
o 立方体
v -1.917970 -1.448343 -1.444715
v -1.917970 3.860337 -1.444715
v 1.897583 -1.448343 -1.444715
v 1.897583 3.860337 -1.444715
v -1.917970 -1.448343 0.555285
v -1.917970 3.860337 0.555285
v 1.897583 -1.448343 0.555285
v 1.897583 3.860337 0.555285
vn -0.0000 -0.0000 -1.0000
vn 1.0000 -0.0000 -0.0000
vn -0.0000 -0.0000 1.0000
vn -1.0000 -0.0000 -0.0000
vn -0.0000 -1.0000 -0.0000
vn -0.0000 1.0000 -0.0000
vt 0.375000 0.000000
vt 0.375000 1.000000
vt 0.125000 0.750000
vt 0.625000 0.000000
vt 0.625000 1.000000
vt 0.875000 0.750000
vt 0.375000 0.250000
vt 0.125000 0.500000
vt 0.625000 0.250000
vt 0.875000 0.500000
vt 0.375000 0.750000
vt 0.625000 0.750000
vt 0.375000 0.500000
vt 0.625000 0.500000
s 0
f 9/24/7 10/27/7 12/32/7 11/30/7
f 11/30/8 12/32/8 16/37/8 15/36/8
f 15/36/9 16/37/9 14/35/9 13/34/9
f 13/34/10 14/35/10 10/28/10 9/25/10
f 11/31/11 15/36/11 13/34/11 9/26/11
f 16/37/12 12/33/12 10/29/12 14/35/12
o 立方体.003
v -0.142800 5.340447 0.473878
v -0.142800 5.643621 0.473878
v 0.129776 5.340447 0.473878
v 0.129776 5.643621 0.473878
v -0.142800 5.340447 1.304981
v -0.142800 5.643621 1.304981
v 0.129776 5.340447 1.304981
v 0.129776 5.643621 1.304981
vn -0.0000 -0.0000 -1.0000
vn 1.0000 -0.0000 -0.0000
vn -0.0000 -0.0000 1.0000
vn -1.0000 -0.0000 -0.0000
vn -0.0000 -1.0000 -0.0000
vn -0.0000 1.0000 -0.0000
vt 0.375000 0.000000
vt 0.375000 1.000000
vt 0.125000 0.750000
vt 0.625000 0.000000
vt 0.625000 1.000000
vt 0.875000 0.750000
vt 0.375000 0.250000
vt 0.125000 0.500000
vt 0.625000 0.250000
vt 0.875000 0.500000
vt 0.375000 0.750000
vt 0.625000 0.750000
vt 0.375000 0.500000
vt 0.625000 0.500000
s 0
f 17/38/13 18/41/13 20/46/13 19/44/13
f 19/44/14 20/46/14 24/51/14 23/50/14
f 23/50/15 24/51/15 22/49/15 21/48/15
f 21/48/16 22/49/16 18/42/16 17/39/16
f 19/45/17 23/50/17 21/48/17 17/40/17
f 24/51/18 20/47/18 18/43/18 22/49/18
