# Blender 3.5.0
# www.blender.org
mtllib player_R_arm.mtl
o 立方体.002
v -0.870468 -0.805592 -0.246089
v -0.270178 0.117585 -0.287229
v -0.601552 -0.980106 -0.238312
v -0.001263 -0.056929 -0.279452
v -0.870468 -0.781880 0.286009
v -0.270178 0.141297 0.244869
v -0.601552 -0.956394 0.293786
v -0.001263 -0.033216 0.252646
vn -0.0000 -0.0445 -0.9990
vn 0.8386 -0.5442 0.0243
vn -0.0000 0.0445 0.9990
vn -0.8386 0.5442 -0.0243
vn -0.5448 -0.8378 0.0373
vn 0.5448 0.8378 -0.0373
vt 0.199033 0.203970
vt 0.000000 0.602035
vt 0.796132 0.199033
vt 0.199033 0.403003
vt 0.000000 0.801068
vt 0.995165 0.398065
vt 0.796132 0.597098
vt 0.796132 0.000000
vt 0.000000 0.203970
vt 0.000000 0.403003
vt 0.796132 0.796131
vt 0.995165 0.199033
vt 0.199033 0.602035
vt 0.199034 0.601656
vt 0.995165 0.199033
vt 0.199034 0.800689
vt 0.199033 0.801068
vt 0.796132 0.398065
vt 0.398066 0.601656
vt 0.597099 0.597098
vt 0.995165 0.000000
vt 0.796132 0.199033
vt 0.597099 0.796131
vt 0.398066 0.800689
s 0
usemtl マテリアル.002
f 2/4/1 3/9/1 1/1/1
f 4/11/2 7/20/2 3/7/2
f 8/24/3 5/14/3 7/19/3
f 6/17/4 1/2/4 5/13/4
f 7/21/5 1/3/5 3/8/5
f 4/12/6 6/18/6 8/22/6
f 2/4/1 4/10/1 3/9/1
f 4/11/2 8/23/2 7/20/2
f 8/24/3 6/16/3 5/14/3
f 6/17/4 2/5/4 1/2/4
f 7/21/5 5/15/5 1/3/5
f 4/12/6 2/6/6 6/18/6
