# Blender 3.5.0
# www.blender.org
mtllib sphere.mtl
o Cube
v -0.909821 0.909821 0.909821
v -0.909821 -0.909821 0.909821
v -0.909821 0.909821 -0.909821
v -0.909821 -0.909821 -0.909821
v 0.909821 0.909821 0.909821
v 0.909821 -0.909821 0.909821
v 0.909821 0.909821 -0.909821
v 0.909821 -0.909821 -0.909821
v 1.042533 -1.042533 0.539797
v 1.109195 -1.109196 0.000000
v 1.042533 -1.042533 -0.539797
v -0.539797 -1.042533 1.042533
v -0.000000 -1.109195 1.109195
v 0.539797 -1.042533 1.042533
v -1.042533 0.539797 1.042533
v -1.109195 0.000000 1.109196
v -1.042533 -0.539797 1.042533
v 1.042533 -0.539797 -1.042533
v 1.109195 -0.000000 -1.109196
v 1.042533 0.539797 -1.042533
v -1.042533 0.539797 -1.042533
v -1.109196 0.000000 -1.109195
v -1.042533 -0.539797 -1.042533
v 1.042533 0.539797 1.042533
v 1.109196 -0.000000 1.109195
v 1.042533 -0.539797 1.042533
v -0.539797 1.042533 -1.042533
v 0.000000 1.109196 -1.109196
v 0.539797 1.042533 -1.042533
v -1.042533 1.042533 0.539797
v -1.109195 1.109195 -0.000000
v -1.042533 1.042533 -0.539797
v 0.539797 -1.042533 -1.042533
v 0.000000 -1.109195 -1.109195
v -0.539797 -1.042533 -1.042533
v 1.042533 1.042533 -0.539797
v 1.109195 1.109195 0.000000
v 1.042533 1.042533 0.539797
v 0.539797 1.042533 1.042533
v -0.000000 1.109195 1.109195
v -0.539797 1.042533 1.042533
v -1.042533 -1.042533 -0.539797
v -1.109195 -1.109195 -0.000000
v -1.042533 -1.042533 0.539797
v -0.575293 1.326501 0.575293
v -0.000000 1.422649 0.606197
v 0.575293 1.326501 0.575293
v -0.606197 1.422649 -0.000000
v 0.000000 1.527601 0.000000
v 0.606197 1.422649 0.000000
v -0.575293 1.326501 -0.575293
v 0.000000 1.422649 -0.606197
v 0.575293 1.326501 -0.575293
v -0.575293 -0.575293 -1.326501
v -0.606197 -0.000000 -1.422649
v -0.575293 0.575293 -1.326501
v 0.000000 -0.606197 -1.422649
v -0.000000 0.000000 -1.527601
v -0.000000 0.606197 -1.422649
v 0.575293 -0.575293 -1.326501
v 0.606197 0.000000 -1.422649
v 0.575293 0.575293 -1.326501
v 1.326501 -0.575293 -0.575293
v 1.422649 -0.000000 -0.606196
v 1.326501 0.575293 -0.575293
v 1.422649 -0.606197 0.000000
v 1.527601 0.000000 0.000000
v 1.422649 0.606196 -0.000000
v 1.326501 -0.575293 0.575293
v 1.422649 0.000000 0.606197
v 1.326501 0.575293 0.575293
v 0.575293 -1.326501 0.575293
v 0.000000 -1.422649 0.606197
v -0.575293 -1.326501 0.575293
v 0.606197 -1.422649 -0.000000
v 0.000000 -1.527601 -0.000000
v -0.606197 -1.422649 0.000000
v 0.575293 -1.326501 -0.575293
v -0.000000 -1.422649 -0.606197
v -0.575293 -1.326501 -0.575293
v -1.326501 -0.575293 0.575293
v -1.422649 -0.000000 0.606197
v -1.326501 0.575293 0.575293
v -1.422649 -0.606197 -0.000000
v -1.527601 0.000000 0.000000
v -1.422649 0.606197 0.000000
v -1.326501 -0.575293 -0.575293
v -1.422649 0.000000 -0.606197
v -1.326501 0.575293 -0.575293
v 0.575293 -0.575293 1.326501
v 0.606196 -0.000000 1.422649
v 0.575293 0.575293 1.326501
v -0.000000 -0.606197 1.422649
v -0.000000 0.000000 1.527601
v 0.000000 0.606196 1.422649
v -0.575293 -0.575293 1.326501
v -0.606197 0.000000 1.422649
v -0.575293 0.575293 1.326501
vn -0.1697 0.9708 0.1697
vn 0.1697 0.9708 0.1697
vn -0.1697 0.9708 -0.1697
vn 0.1697 0.9708 -0.1697
vn -0.4674 0.7504 0.4674
vn -0.1678 0.8367 0.5213
vn 0.1678 0.8367 0.5213
vn 0.4674 0.7504 0.4674
vn 0.5213 0.8367 0.1678
vn 0.5213 0.8367 -0.1678
vn 0.4674 0.7504 -0.4674
vn 0.1678 0.8367 -0.5213
vn -0.1678 0.8367 -0.5213
vn -0.4674 0.7504 -0.4674
vn -0.5213 0.8367 -0.1678
vn -0.5213 0.8367 0.1678
vn -0.1697 -0.1697 -0.9708
vn -0.1697 0.1697 -0.9708
vn 0.1697 -0.1697 -0.9708
vn 0.1697 0.1697 -0.9708
vn -0.4674 -0.4674 -0.7504
vn -0.5213 -0.1678 -0.8367
vn -0.5213 0.1678 -0.8367
vn -0.4674 0.4674 -0.7504
vn -0.1678 0.5213 -0.8367
vn 0.1678 0.5213 -0.8367
vn 0.4674 0.4674 -0.7504
vn 0.5213 0.1678 -0.8367
vn 0.5213 -0.1678 -0.8367
vn 0.4674 -0.4674 -0.7504
vn 0.1678 -0.5213 -0.8367
vn -0.1678 -0.5213 -0.8367
vn 0.9708 -0.1697 -0.1697
vn 0.9708 0.1697 -0.1697
vn 0.9708 -0.1697 0.1697
vn 0.9708 0.1697 0.1697
vn 0.7504 -0.4674 -0.4674
vn 0.8367 -0.1678 -0.5213
vn 0.8367 0.1678 -0.5213
vn 0.7504 0.4674 -0.4674
vn 0.8367 0.5213 -0.1678
vn 0.8367 0.5213 0.1678
vn 0.7504 0.4674 0.4674
vn 0.8367 0.1678 0.5213
vn 0.8367 -0.1678 0.5213
vn 0.7504 -0.4674 0.4674
vn 0.8367 -0.5213 0.1678
vn 0.8367 -0.5213 -0.1678
vn 0.1697 -0.9708 0.1697
vn -0.1697 -0.9708 0.1697
vn 0.1697 -0.9708 -0.1697
vn -0.1697 -0.9708 -0.1697
vn 0.4674 -0.7504 0.4674
vn 0.1678 -0.8367 0.5213
vn -0.1678 -0.8367 0.5213
vn -0.4674 -0.7504 0.4674
vn -0.5213 -0.8367 0.1678
vn -0.5213 -0.8367 -0.1678
vn -0.4674 -0.7504 -0.4674
vn -0.1678 -0.8367 -0.5213
vn 0.1678 -0.8367 -0.5213
vn 0.4674 -0.7504 -0.4674
vn 0.5213 -0.8367 -0.1678
vn 0.5213 -0.8367 0.1678
vn -0.9708 -0.1697 0.1697
vn -0.9708 0.1697 0.1697
vn -0.9708 -0.1697 -0.1697
vn -0.9708 0.1697 -0.1697
vn -0.7504 -0.4674 0.4674
vn -0.8367 -0.1678 0.5213
vn -0.8367 0.1678 0.5213
vn -0.7504 0.4674 0.4674
vn -0.8367 0.5213 0.1678
vn -0.8367 0.5213 -0.1678
vn -0.7504 0.4674 -0.4674
vn -0.8367 0.1678 -0.5213
vn -0.8367 -0.1678 -0.5213
vn -0.7504 -0.4674 -0.4674
vn -0.8367 -0.5213 -0.1678
vn -0.8367 -0.5213 0.1678
vn 0.1697 -0.1697 0.9708
vn 0.1697 0.1697 0.9708
vn -0.1697 -0.1697 0.9708
vn -0.1697 0.1697 0.9708
vn 0.4674 -0.4674 0.7504
vn 0.5213 -0.1678 0.8367
vn 0.5213 0.1678 0.8367
vn 0.4674 0.4674 0.7504
vn 0.1678 0.5213 0.8367
vn -0.1678 0.5213 0.8367
vn -0.4674 0.4674 0.7504
vn -0.5213 0.1678 0.8367
vn -0.5213 -0.1678 0.8367
vn -0.4674 -0.4674 0.7504
vn -0.1678 -0.5213 0.8367
vn 0.1678 -0.5213 0.8367
vt 0.666667 0.000000
vt 0.666667 0.666667
vt 0.000000 1.000000
vt 0.666667 0.000000
vt 0.666667 0.333333
vt 0.000000 0.666667
vt 0.666667 0.333333
vt 0.333333 0.333333
vt 0.333333 0.666667
vt 0.333333 0.000000
vt 0.666667 0.333333
vt 0.333333 0.333333
vt 1.000000 0.000000
vt 0.000000 0.666667
vt 0.333333 1.000000
vt 0.000000 0.333333
vt 0.333333 0.000000
vt 0.333333 0.666667
vt 1.000000 0.333333
vt 0.000000 0.333333
vt 0.333333 0.666667
vt 0.000000 0.000000
vt 0.333333 0.333333
vt 0.083333 0.333333
vt 0.333333 0.083333
vt 0.166667 0.333333
vt 0.333333 0.166667
vt 0.250000 0.333333
vt 0.333333 0.250000
vt 0.583333 0.000000
vt 0.083333 0.666667
vt 0.500000 0.000000
vt 0.166667 0.666667
vt 0.416667 0.000000
vt 0.250000 0.666667
vt 0.666667 0.583333
vt 0.000000 0.916667
vt 0.666667 0.500000
vt 0.000000 0.833333
vt 0.666667 0.416667
vt 0.000000 0.750000
vt 0.000000 0.083333
vt 0.333333 0.416667
vt 0.000000 0.166667
vt 0.333333 0.500000
vt 0.000000 0.250000
vt 0.333333 0.583333
vt 0.333333 0.250000
vt 0.333333 0.583333
vt 0.333333 0.166667
vt 0.333333 0.500000
vt 0.333333 0.083333
vt 0.333333 0.416667
vt 0.000000 0.583333
vt 0.333333 0.916667
vt 0.000000 0.500000
vt 0.333333 0.833333
vt 0.000000 0.416667
vt 0.333333 0.750000
vt 0.750000 0.333333
vt 0.250000 0.333333
vt 0.833333 0.333333
vt 0.166667 0.333333
vt 0.916667 0.333333
vt 0.083333 0.333333
vt 0.666667 0.083333
vt 0.583333 0.666667
vt 0.666667 0.166667
vt 0.500000 0.666667
vt 0.666667 0.250000
vt 0.416667 0.666667
vt 0.083333 0.000000
vt 0.416667 0.333333
vt 0.166667 0.000000
vt 0.500000 0.333333
vt 0.250000 0.000000
vt 0.583333 0.333333
vt 1.000000 0.250000
vt 0.250000 0.666667
vt 1.000000 0.166667
vt 0.166667 0.666667
vt 1.000000 0.083333
vt 0.083333 0.666667
vt 0.916667 0.000000
vt 0.250000 1.000000
vt 0.833333 0.000000
vt 0.166667 1.000000
vt 0.750000 0.000000
vt 0.083333 1.000000
vt 0.666667 0.250000
vt 0.416667 0.333333
vt 0.666667 0.166667
vt 0.500000 0.333333
vt 0.666667 0.083333
vt 0.583333 0.333333
vt 0.750000 0.083333
vt 0.833333 0.083333
vt 0.916667 0.083333
vt 0.750000 0.166667
vt 0.833333 0.166667
vt 0.916667 0.166667
vt 0.750000 0.250000
vt 0.833333 0.250000
vt 0.916667 0.250000
vt 0.250000 0.083333
vt 0.250000 0.166667
vt 0.250000 0.250000
vt 0.166667 0.083333
vt 0.166667 0.166667
vt 0.166667 0.250000
vt 0.083333 0.083333
vt 0.083333 0.166667
vt 0.083333 0.250000
vt 0.250000 0.416667
vt 0.250000 0.500000
vt 0.250000 0.583333
vt 0.166667 0.416667
vt 0.166667 0.500000
vt 0.166667 0.583333
vt 0.083333 0.416667
vt 0.083333 0.500000
vt 0.083333 0.583333
vt 0.416667 0.083333
vt 0.500000 0.083333
vt 0.583333 0.083333
vt 0.416667 0.166667
vt 0.500000 0.166667
vt 0.583333 0.166667
vt 0.416667 0.250000
vt 0.500000 0.250000
vt 0.583333 0.250000
vt 0.583333 0.416667
vt 0.583333 0.500000
vt 0.583333 0.583333
vt 0.500000 0.416667
vt 0.500000 0.500000
vt 0.500000 0.583333
vt 0.416667 0.416667
vt 0.416667 0.500000
vt 0.416667 0.583333
vt 0.250000 0.750000
vt 0.250000 0.833333
vt 0.250000 0.916667
vt 0.166667 0.750000
vt 0.166667 0.833333
vt 0.166667 0.916667
vt 0.083333 0.750000
vt 0.083333 0.833333
vt 0.083333 0.916667
s 0
usemtl Material
f 45/96/1 46/97/1 49/100/1 48/99/1
f 46/97/2 47/98/2 50/101/2 49/100/2
f 48/99/3 49/100/3 52/103/3 51/102/3
f 49/100/4 50/101/4 53/104/4 52/103/4
f 1/1/5 41/88/5 45/96/5 30/66/5
f 41/88/6 40/86/6 46/97/6 45/96/6
f 40/86/7 39/84/7 47/98/7 46/97/7
f 39/84/8 5/13/8 38/82/8 47/98/8
f 47/98/9 38/82/9 37/80/9 50/101/9
f 50/101/10 37/80/10 36/78/10 53/104/10
f 53/104/11 36/78/11 7/19/11 29/64/11
f 52/103/12 53/104/12 29/64/12 28/62/12
f 51/102/13 52/103/13 28/62/13 27/60/13
f 32/70/14 51/102/14 27/60/14 3/7/14
f 31/68/15 48/99/15 51/102/15 32/70/15
f 30/66/16 45/96/16 48/99/16 31/68/16
f 54/105/17 55/106/17 58/109/17 57/108/17
f 55/106/18 56/107/18 59/110/18 58/109/18
f 57/108/19 58/109/19 61/112/19 60/111/19
f 58/109/20 59/110/20 62/113/20 61/112/20
f 4/10/21 23/52/21 54/105/21 35/76/21
f 23/52/22 22/50/22 55/106/22 54/105/22
f 22/50/23 21/48/23 56/107/23 55/106/23
f 21/48/24 3/8/24 27/61/24 56/107/24
f 56/107/25 27/61/25 28/63/25 59/110/25
f 59/110/26 28/63/26 29/65/26 62/113/26
f 62/113/27 29/65/27 7/20/27 20/46/27
f 61/112/28 62/113/28 20/46/28 19/44/28
f 60/111/29 61/112/29 19/44/29 18/42/29
f 33/72/30 60/111/30 18/42/30 8/22/30
f 34/74/31 57/108/31 60/111/31 33/72/31
f 35/76/32 54/105/32 57/108/32 34/74/32
f 63/114/33 64/115/33 67/118/33 66/117/33
f 64/115/34 65/116/34 68/119/34 67/118/34
f 66/117/35 67/118/35 70/121/35 69/120/35
f 67/118/36 68/119/36 71/122/36 70/121/36
f 8/23/37 18/43/37 63/114/37 11/28/37
f 18/43/38 19/45/38 64/115/38 63/114/38
f 19/45/39 20/47/39 65/116/39 64/115/39
f 20/47/40 7/21/40 36/79/40 65/116/40
f 65/116/41 36/79/41 37/81/41 68/119/41
f 68/119/42 37/81/42 38/83/42 71/122/42
f 71/122/43 38/83/43 5/14/43 24/54/43
f 70/121/44 71/122/44 24/54/44 25/56/44
f 69/120/45 70/121/45 25/56/45 26/58/45
f 9/24/46 69/120/46 26/58/46 6/16/46
f 10/26/47 66/117/47 69/120/47 9/24/47
f 11/28/48 63/114/48 66/117/48 10/26/48
f 72/123/49 73/124/49 76/127/49 75/126/49
f 73/124/50 74/125/50 77/128/50 76/127/50
f 75/126/51 76/127/51 79/130/51 78/129/51
f 76/127/52 77/128/52 80/131/52 79/130/52
f 6/17/53 14/34/53 72/123/53 9/25/53
f 14/34/54 13/32/54 73/124/54 72/123/54
f 13/32/55 12/30/55 74/125/55 73/124/55
f 12/30/56 2/4/56 44/94/56 74/125/56
f 74/125/57 44/94/57 43/92/57 77/128/57
f 77/128/58 43/92/58 42/90/58 80/131/58
f 80/131/59 42/90/59 4/11/59 35/77/59
f 79/130/60 80/131/60 35/77/60 34/75/60
f 78/129/61 79/130/61 34/75/61 33/73/61
f 11/29/62 78/129/62 33/73/62 8/23/62
f 10/27/63 75/126/63 78/129/63 11/29/63
f 9/25/64 72/123/64 75/126/64 10/27/64
f 81/132/65 82/133/65 85/136/65 84/135/65
f 82/133/66 83/134/66 86/137/66 85/136/66
f 84/135/67 85/136/67 88/139/67 87/138/67
f 85/136/68 86/137/68 89/140/68 88/139/68
f 2/5/69 17/40/69 81/132/69 44/95/69
f 17/40/70 16/38/70 82/133/70 81/132/70
f 16/38/71 15/36/71 83/134/71 82/133/71
f 15/36/72 1/2/72 30/67/72 83/134/72
f 83/134/73 30/67/73 31/69/73 86/137/73
f 86/137/74 31/69/74 32/71/74 89/140/74
f 89/140/75 32/71/75 3/9/75 21/49/75
f 88/139/76 89/140/76 21/49/76 22/51/76
f 87/138/77 88/139/77 22/51/77 23/53/77
f 42/91/78 87/138/78 23/53/78 4/12/78
f 43/93/79 84/135/79 87/138/79 42/91/79
f 44/95/80 81/132/80 84/135/80 43/93/80
f 90/141/81 91/142/81 94/145/81 93/144/81
f 91/142/82 92/143/82 95/146/82 94/145/82
f 93/144/83 94/145/83 97/148/83 96/147/83
f 94/145/84 95/146/84 98/149/84 97/148/84
f 6/18/85 26/59/85 90/141/85 14/35/85
f 26/59/86 25/57/86 91/142/86 90/141/86
f 25/57/87 24/55/87 92/143/87 91/142/87
f 24/55/88 5/15/88 39/85/88 92/143/88
f 92/143/89 39/85/89 40/87/89 95/146/89
f 95/146/90 40/87/90 41/89/90 98/149/90
f 98/149/91 41/89/91 1/3/91 15/37/91
f 97/148/92 98/149/92 15/37/92 16/39/92
f 96/147/93 97/148/93 16/39/93 17/41/93
f 12/31/94 96/147/94 17/41/94 2/6/94
f 13/33/95 93/144/95 96/147/95 12/31/95
f 14/35/96 90/141/96 93/144/96 13/33/96
